<mxfile host="app.diagrams.net" agent="Mozilla/5.0 (Windows NT 10.0; Win64; x64) AppleWebKit/537.36 (KHTML, like Gecko) Chrome/128.0.0.0 Safari/537.36" version="24.7.7">
  <diagram id="C5RBs43oDa-KdzZeNtuy" name="Page-1">
    <mxGraphModel dx="1181" dy="1013" grid="1" gridSize="10" guides="1" tooltips="1" connect="1" arrows="1" fold="1" page="1" pageScale="1" pageWidth="827" pageHeight="1169" math="0" shadow="0">
      <root>
        <mxCell id="WIyWlLk6GJQsqaUBKTNV-0" />
        <mxCell id="WIyWlLk6GJQsqaUBKTNV-1" parent="WIyWlLk6GJQsqaUBKTNV-0" />
        <mxCell id="3f8cZPRLPkg1q_n1R3NL-9" value="" style="edgeStyle=orthogonalEdgeStyle;rounded=0;orthogonalLoop=1;jettySize=auto;html=1;" edge="1" parent="WIyWlLk6GJQsqaUBKTNV-1" source="WIyWlLk6GJQsqaUBKTNV-3" target="3f8cZPRLPkg1q_n1R3NL-8">
          <mxGeometry relative="1" as="geometry" />
        </mxCell>
        <mxCell id="3f8cZPRLPkg1q_n1R3NL-11" value="" style="edgeStyle=orthogonalEdgeStyle;rounded=0;orthogonalLoop=1;jettySize=auto;html=1;" edge="1" parent="WIyWlLk6GJQsqaUBKTNV-1" source="WIyWlLk6GJQsqaUBKTNV-3" target="3f8cZPRLPkg1q_n1R3NL-10">
          <mxGeometry relative="1" as="geometry" />
        </mxCell>
        <mxCell id="WIyWlLk6GJQsqaUBKTNV-3" value="Would you like to play blackjack?" style="rounded=1;whiteSpace=wrap;html=1;fontSize=12;glass=0;strokeWidth=1;shadow=0;" parent="WIyWlLk6GJQsqaUBKTNV-1" vertex="1">
          <mxGeometry x="320" y="30" width="170" height="70" as="geometry" />
        </mxCell>
        <mxCell id="3f8cZPRLPkg1q_n1R3NL-8" value="NO" style="rhombus;whiteSpace=wrap;html=1;rounded=1;glass=0;strokeWidth=1;shadow=0;" vertex="1" parent="WIyWlLk6GJQsqaUBKTNV-1">
          <mxGeometry x="115" width="80" height="80" as="geometry" />
        </mxCell>
        <mxCell id="3f8cZPRLPkg1q_n1R3NL-15" value="" style="edgeStyle=orthogonalEdgeStyle;rounded=0;orthogonalLoop=1;jettySize=auto;html=1;" edge="1" parent="WIyWlLk6GJQsqaUBKTNV-1" source="3f8cZPRLPkg1q_n1R3NL-10" target="3f8cZPRLPkg1q_n1R3NL-14">
          <mxGeometry relative="1" as="geometry" />
        </mxCell>
        <mxCell id="3f8cZPRLPkg1q_n1R3NL-10" value="YES" style="rhombus;whiteSpace=wrap;html=1;rounded=1;glass=0;strokeWidth=1;shadow=0;" vertex="1" parent="WIyWlLk6GJQsqaUBKTNV-1">
          <mxGeometry x="615" y="25" width="80" height="80" as="geometry" />
        </mxCell>
        <mxCell id="3f8cZPRLPkg1q_n1R3NL-17" value="" style="edgeStyle=orthogonalEdgeStyle;rounded=0;orthogonalLoop=1;jettySize=auto;html=1;" edge="1" parent="WIyWlLk6GJQsqaUBKTNV-1" source="3f8cZPRLPkg1q_n1R3NL-14" target="3f8cZPRLPkg1q_n1R3NL-16">
          <mxGeometry relative="1" as="geometry" />
        </mxCell>
        <mxCell id="3f8cZPRLPkg1q_n1R3NL-14" value="SHUFFLE THE CARDS PACK" style="whiteSpace=wrap;html=1;rounded=1;glass=0;strokeWidth=1;shadow=0;" vertex="1" parent="WIyWlLk6GJQsqaUBKTNV-1">
          <mxGeometry x="595" y="195" width="120" height="60" as="geometry" />
        </mxCell>
        <mxCell id="3f8cZPRLPkg1q_n1R3NL-23" value="" style="edgeStyle=orthogonalEdgeStyle;rounded=0;orthogonalLoop=1;jettySize=auto;html=1;" edge="1" parent="WIyWlLk6GJQsqaUBKTNV-1" source="3f8cZPRLPkg1q_n1R3NL-16" target="3f8cZPRLPkg1q_n1R3NL-22">
          <mxGeometry relative="1" as="geometry" />
        </mxCell>
        <mxCell id="3f8cZPRLPkg1q_n1R3NL-28" value="" style="edgeStyle=orthogonalEdgeStyle;rounded=0;orthogonalLoop=1;jettySize=auto;html=1;" edge="1" parent="WIyWlLk6GJQsqaUBKTNV-1" source="3f8cZPRLPkg1q_n1R3NL-16" target="3f8cZPRLPkg1q_n1R3NL-27">
          <mxGeometry relative="1" as="geometry" />
        </mxCell>
        <mxCell id="3f8cZPRLPkg1q_n1R3NL-16" value="GIVE 2 CARDS TO USER" style="whiteSpace=wrap;html=1;rounded=1;glass=0;strokeWidth=1;shadow=0;" vertex="1" parent="WIyWlLk6GJQsqaUBKTNV-1">
          <mxGeometry x="595" y="335" width="120" height="60" as="geometry" />
        </mxCell>
        <mxCell id="3f8cZPRLPkg1q_n1R3NL-25" value="" style="edgeStyle=orthogonalEdgeStyle;rounded=0;orthogonalLoop=1;jettySize=auto;html=1;" edge="1" parent="WIyWlLk6GJQsqaUBKTNV-1" source="3f8cZPRLPkg1q_n1R3NL-22" target="3f8cZPRLPkg1q_n1R3NL-24">
          <mxGeometry relative="1" as="geometry" />
        </mxCell>
        <mxCell id="3f8cZPRLPkg1q_n1R3NL-30" value="" style="edgeStyle=orthogonalEdgeStyle;rounded=0;orthogonalLoop=1;jettySize=auto;html=1;" edge="1" parent="WIyWlLk6GJQsqaUBKTNV-1" source="3f8cZPRLPkg1q_n1R3NL-22" target="3f8cZPRLPkg1q_n1R3NL-29">
          <mxGeometry relative="1" as="geometry" />
        </mxCell>
        <mxCell id="3f8cZPRLPkg1q_n1R3NL-22" value="GIVE 2 CARDS TO DEALER" style="whiteSpace=wrap;html=1;rounded=1;glass=0;strokeWidth=1;shadow=0;" vertex="1" parent="WIyWlLk6GJQsqaUBKTNV-1">
          <mxGeometry x="595" y="475" width="120" height="60" as="geometry" />
        </mxCell>
        <mxCell id="3f8cZPRLPkg1q_n1R3NL-32" value="" style="edgeStyle=orthogonalEdgeStyle;rounded=0;orthogonalLoop=1;jettySize=auto;html=1;" edge="1" parent="WIyWlLk6GJQsqaUBKTNV-1" source="3f8cZPRLPkg1q_n1R3NL-24" target="3f8cZPRLPkg1q_n1R3NL-31">
          <mxGeometry relative="1" as="geometry" />
        </mxCell>
        <mxCell id="3f8cZPRLPkg1q_n1R3NL-34" value="" style="edgeStyle=orthogonalEdgeStyle;rounded=0;orthogonalLoop=1;jettySize=auto;html=1;" edge="1" parent="WIyWlLk6GJQsqaUBKTNV-1" source="3f8cZPRLPkg1q_n1R3NL-24" target="3f8cZPRLPkg1q_n1R3NL-33">
          <mxGeometry relative="1" as="geometry" />
        </mxCell>
        <mxCell id="3f8cZPRLPkg1q_n1R3NL-24" value="WOULD YOU LIKE TO RECIEVE ANOTHER CARD?" style="whiteSpace=wrap;html=1;rounded=1;glass=0;strokeWidth=1;shadow=0;" vertex="1" parent="WIyWlLk6GJQsqaUBKTNV-1">
          <mxGeometry x="595" y="600" width="120" height="60" as="geometry" />
        </mxCell>
        <mxCell id="3f8cZPRLPkg1q_n1R3NL-27" value="COUNT THE TOTAL SCORE VALUE OF USER" style="rhombus;whiteSpace=wrap;html=1;rounded=1;glass=0;strokeWidth=1;shadow=0;" vertex="1" parent="WIyWlLk6GJQsqaUBKTNV-1">
          <mxGeometry x="295" y="301.25" width="195" height="127.5" as="geometry" />
        </mxCell>
        <mxCell id="3f8cZPRLPkg1q_n1R3NL-29" value="EXPOSE ONE CARD OF THE DEALER" style="rhombus;whiteSpace=wrap;html=1;rounded=1;glass=0;strokeWidth=1;shadow=0;" vertex="1" parent="WIyWlLk6GJQsqaUBKTNV-1">
          <mxGeometry x="290" y="447.5" width="205" height="115" as="geometry" />
        </mxCell>
        <mxCell id="3f8cZPRLPkg1q_n1R3NL-38" value="" style="edgeStyle=orthogonalEdgeStyle;rounded=0;orthogonalLoop=1;jettySize=auto;html=1;" edge="1" parent="WIyWlLk6GJQsqaUBKTNV-1" source="3f8cZPRLPkg1q_n1R3NL-31" target="3f8cZPRLPkg1q_n1R3NL-37">
          <mxGeometry relative="1" as="geometry" />
        </mxCell>
        <mxCell id="3f8cZPRLPkg1q_n1R3NL-31" value="NO" style="rhombus;whiteSpace=wrap;html=1;rounded=1;glass=0;strokeWidth=1;shadow=0;" vertex="1" parent="WIyWlLk6GJQsqaUBKTNV-1">
          <mxGeometry x="415" y="590" width="80" height="80" as="geometry" />
        </mxCell>
        <mxCell id="3f8cZPRLPkg1q_n1R3NL-36" value="" style="edgeStyle=orthogonalEdgeStyle;rounded=0;orthogonalLoop=1;jettySize=auto;html=1;" edge="1" parent="WIyWlLk6GJQsqaUBKTNV-1" source="3f8cZPRLPkg1q_n1R3NL-33" target="3f8cZPRLPkg1q_n1R3NL-35">
          <mxGeometry relative="1" as="geometry" />
        </mxCell>
        <mxCell id="3f8cZPRLPkg1q_n1R3NL-33" value="YES" style="rhombus;whiteSpace=wrap;html=1;rounded=1;glass=0;strokeWidth=1;shadow=0;" vertex="1" parent="WIyWlLk6GJQsqaUBKTNV-1">
          <mxGeometry x="815" y="590" width="80" height="80" as="geometry" />
        </mxCell>
        <mxCell id="3f8cZPRLPkg1q_n1R3NL-70" value="" style="edgeStyle=orthogonalEdgeStyle;rounded=0;orthogonalLoop=1;jettySize=auto;html=1;" edge="1" parent="WIyWlLk6GJQsqaUBKTNV-1" source="3f8cZPRLPkg1q_n1R3NL-35" target="3f8cZPRLPkg1q_n1R3NL-69">
          <mxGeometry relative="1" as="geometry" />
        </mxCell>
        <mxCell id="3f8cZPRLPkg1q_n1R3NL-35" value="ADDING 1 MORE CARD TO THE PLAYER PACK" style="whiteSpace=wrap;html=1;rounded=1;glass=0;strokeWidth=1;shadow=0;" vertex="1" parent="WIyWlLk6GJQsqaUBKTNV-1">
          <mxGeometry x="930" y="700" width="120" height="60" as="geometry" />
        </mxCell>
        <mxCell id="3f8cZPRLPkg1q_n1R3NL-40" value="" style="edgeStyle=orthogonalEdgeStyle;rounded=0;orthogonalLoop=1;jettySize=auto;html=1;" edge="1" parent="WIyWlLk6GJQsqaUBKTNV-1" source="3f8cZPRLPkg1q_n1R3NL-37" target="3f8cZPRLPkg1q_n1R3NL-39">
          <mxGeometry relative="1" as="geometry" />
        </mxCell>
        <mxCell id="3f8cZPRLPkg1q_n1R3NL-44" value="" style="edgeStyle=orthogonalEdgeStyle;rounded=0;orthogonalLoop=1;jettySize=auto;html=1;" edge="1" parent="WIyWlLk6GJQsqaUBKTNV-1" source="3f8cZPRLPkg1q_n1R3NL-37" target="3f8cZPRLPkg1q_n1R3NL-43">
          <mxGeometry relative="1" as="geometry" />
        </mxCell>
        <mxCell id="3f8cZPRLPkg1q_n1R3NL-37" value="COMPARE WHO HAS MORE POINTS" style="whiteSpace=wrap;html=1;rounded=1;glass=0;strokeWidth=1;shadow=0;" vertex="1" parent="WIyWlLk6GJQsqaUBKTNV-1">
          <mxGeometry x="395" y="830" width="120" height="60" as="geometry" />
        </mxCell>
        <mxCell id="3f8cZPRLPkg1q_n1R3NL-42" value="" style="edgeStyle=orthogonalEdgeStyle;rounded=0;orthogonalLoop=1;jettySize=auto;html=1;" edge="1" parent="WIyWlLk6GJQsqaUBKTNV-1" source="3f8cZPRLPkg1q_n1R3NL-39" target="3f8cZPRLPkg1q_n1R3NL-41">
          <mxGeometry relative="1" as="geometry" />
        </mxCell>
        <mxCell id="3f8cZPRLPkg1q_n1R3NL-39" value="IF DEALER HAS" style="rhombus;whiteSpace=wrap;html=1;rounded=1;glass=0;strokeWidth=1;shadow=0;" vertex="1" parent="WIyWlLk6GJQsqaUBKTNV-1">
          <mxGeometry x="215" y="820" width="80" height="80" as="geometry" />
        </mxCell>
        <mxCell id="3f8cZPRLPkg1q_n1R3NL-52" value="" style="edgeStyle=orthogonalEdgeStyle;rounded=0;orthogonalLoop=1;jettySize=auto;html=1;" edge="1" parent="WIyWlLk6GJQsqaUBKTNV-1" source="3f8cZPRLPkg1q_n1R3NL-41" target="3f8cZPRLPkg1q_n1R3NL-51">
          <mxGeometry relative="1" as="geometry" />
        </mxCell>
        <mxCell id="3f8cZPRLPkg1q_n1R3NL-41" value="DEALER WON" style="whiteSpace=wrap;html=1;rounded=1;glass=0;strokeWidth=1;shadow=0;" vertex="1" parent="WIyWlLk6GJQsqaUBKTNV-1">
          <mxGeometry x="195" y="990" width="120" height="60" as="geometry" />
        </mxCell>
        <mxCell id="3f8cZPRLPkg1q_n1R3NL-48" value="" style="edgeStyle=orthogonalEdgeStyle;rounded=0;orthogonalLoop=1;jettySize=auto;html=1;" edge="1" parent="WIyWlLk6GJQsqaUBKTNV-1" source="3f8cZPRLPkg1q_n1R3NL-43" target="3f8cZPRLPkg1q_n1R3NL-47">
          <mxGeometry relative="1" as="geometry" />
        </mxCell>
        <mxCell id="3f8cZPRLPkg1q_n1R3NL-43" value="IF USER HAS" style="rhombus;whiteSpace=wrap;html=1;rounded=1;glass=0;strokeWidth=1;shadow=0;" vertex="1" parent="WIyWlLk6GJQsqaUBKTNV-1">
          <mxGeometry x="615" y="820" width="80" height="80" as="geometry" />
        </mxCell>
        <mxCell id="3f8cZPRLPkg1q_n1R3NL-54" value="" style="edgeStyle=orthogonalEdgeStyle;rounded=0;orthogonalLoop=1;jettySize=auto;html=1;" edge="1" parent="WIyWlLk6GJQsqaUBKTNV-1" source="3f8cZPRLPkg1q_n1R3NL-47" target="3f8cZPRLPkg1q_n1R3NL-53">
          <mxGeometry relative="1" as="geometry" />
        </mxCell>
        <mxCell id="3f8cZPRLPkg1q_n1R3NL-47" value="USER WON" style="whiteSpace=wrap;html=1;rounded=1;glass=0;strokeWidth=1;shadow=0;" vertex="1" parent="WIyWlLk6GJQsqaUBKTNV-1">
          <mxGeometry x="595" y="990" width="120" height="60" as="geometry" />
        </mxCell>
        <mxCell id="3f8cZPRLPkg1q_n1R3NL-56" value="" style="edgeStyle=orthogonalEdgeStyle;rounded=0;orthogonalLoop=1;jettySize=auto;html=1;" edge="1" parent="WIyWlLk6GJQsqaUBKTNV-1" source="3f8cZPRLPkg1q_n1R3NL-51" target="3f8cZPRLPkg1q_n1R3NL-55">
          <mxGeometry relative="1" as="geometry" />
        </mxCell>
        <mxCell id="3f8cZPRLPkg1q_n1R3NL-58" value="" style="edgeStyle=orthogonalEdgeStyle;rounded=0;orthogonalLoop=1;jettySize=auto;html=1;" edge="1" parent="WIyWlLk6GJQsqaUBKTNV-1" source="3f8cZPRLPkg1q_n1R3NL-51" target="3f8cZPRLPkg1q_n1R3NL-57">
          <mxGeometry relative="1" as="geometry" />
        </mxCell>
        <mxCell id="3f8cZPRLPkg1q_n1R3NL-51" value="WOULD&amp;nbsp; YOU LIKE TO PLAY AGAIN?" style="whiteSpace=wrap;html=1;rounded=1;glass=0;strokeWidth=1;shadow=0;" vertex="1" parent="WIyWlLk6GJQsqaUBKTNV-1">
          <mxGeometry x="195" y="1130" width="120" height="60" as="geometry" />
        </mxCell>
        <mxCell id="3f8cZPRLPkg1q_n1R3NL-63" value="" style="edgeStyle=orthogonalEdgeStyle;rounded=0;orthogonalLoop=1;jettySize=auto;html=1;" edge="1" parent="WIyWlLk6GJQsqaUBKTNV-1" source="3f8cZPRLPkg1q_n1R3NL-53" target="3f8cZPRLPkg1q_n1R3NL-62">
          <mxGeometry relative="1" as="geometry" />
        </mxCell>
        <mxCell id="3f8cZPRLPkg1q_n1R3NL-67" value="" style="edgeStyle=orthogonalEdgeStyle;rounded=0;orthogonalLoop=1;jettySize=auto;html=1;" edge="1" parent="WIyWlLk6GJQsqaUBKTNV-1" source="3f8cZPRLPkg1q_n1R3NL-53" target="3f8cZPRLPkg1q_n1R3NL-66">
          <mxGeometry relative="1" as="geometry" />
        </mxCell>
        <mxCell id="3f8cZPRLPkg1q_n1R3NL-53" value="WOULD&amp;nbsp; YOU LIKE TO PLAY AGAIN?" style="whiteSpace=wrap;html=1;rounded=1;glass=0;strokeWidth=1;shadow=0;" vertex="1" parent="WIyWlLk6GJQsqaUBKTNV-1">
          <mxGeometry x="775" y="1130" width="120" height="60" as="geometry" />
        </mxCell>
        <mxCell id="3f8cZPRLPkg1q_n1R3NL-61" style="edgeStyle=orthogonalEdgeStyle;rounded=0;orthogonalLoop=1;jettySize=auto;html=1;exitX=0.5;exitY=0;exitDx=0;exitDy=0;entryX=0;entryY=0.75;entryDx=0;entryDy=0;" edge="1" parent="WIyWlLk6GJQsqaUBKTNV-1" source="3f8cZPRLPkg1q_n1R3NL-55" target="WIyWlLk6GJQsqaUBKTNV-3">
          <mxGeometry relative="1" as="geometry" />
        </mxCell>
        <mxCell id="3f8cZPRLPkg1q_n1R3NL-55" value="&lt;div&gt;YES&lt;/div&gt;" style="rhombus;whiteSpace=wrap;html=1;rounded=1;glass=0;strokeWidth=1;shadow=0;" vertex="1" parent="WIyWlLk6GJQsqaUBKTNV-1">
          <mxGeometry x="15" y="1120" width="80" height="80" as="geometry" />
        </mxCell>
        <mxCell id="3f8cZPRLPkg1q_n1R3NL-60" value="" style="edgeStyle=orthogonalEdgeStyle;rounded=0;orthogonalLoop=1;jettySize=auto;html=1;" edge="1" parent="WIyWlLk6GJQsqaUBKTNV-1" source="3f8cZPRLPkg1q_n1R3NL-57" target="3f8cZPRLPkg1q_n1R3NL-59">
          <mxGeometry relative="1" as="geometry" />
        </mxCell>
        <mxCell id="3f8cZPRLPkg1q_n1R3NL-57" value="NO" style="rhombus;whiteSpace=wrap;html=1;rounded=1;glass=0;strokeWidth=1;shadow=0;" vertex="1" parent="WIyWlLk6GJQsqaUBKTNV-1">
          <mxGeometry x="415" y="1120" width="80" height="80" as="geometry" />
        </mxCell>
        <mxCell id="3f8cZPRLPkg1q_n1R3NL-59" value="END" style="whiteSpace=wrap;html=1;rounded=1;glass=0;strokeWidth=1;shadow=0;" vertex="1" parent="WIyWlLk6GJQsqaUBKTNV-1">
          <mxGeometry x="395" y="1290" width="120" height="60" as="geometry" />
        </mxCell>
        <mxCell id="3f8cZPRLPkg1q_n1R3NL-65" value="" style="edgeStyle=orthogonalEdgeStyle;rounded=0;orthogonalLoop=1;jettySize=auto;html=1;" edge="1" parent="WIyWlLk6GJQsqaUBKTNV-1" source="3f8cZPRLPkg1q_n1R3NL-62" target="3f8cZPRLPkg1q_n1R3NL-64">
          <mxGeometry relative="1" as="geometry" />
        </mxCell>
        <mxCell id="3f8cZPRLPkg1q_n1R3NL-62" value="NO" style="rhombus;whiteSpace=wrap;html=1;rounded=1;glass=0;strokeWidth=1;shadow=0;" vertex="1" parent="WIyWlLk6GJQsqaUBKTNV-1">
          <mxGeometry x="595" y="1120" width="80" height="80" as="geometry" />
        </mxCell>
        <mxCell id="3f8cZPRLPkg1q_n1R3NL-64" value="END" style="whiteSpace=wrap;html=1;rounded=1;glass=0;strokeWidth=1;shadow=0;" vertex="1" parent="WIyWlLk6GJQsqaUBKTNV-1">
          <mxGeometry x="575" y="1290" width="120" height="60" as="geometry" />
        </mxCell>
        <mxCell id="3f8cZPRLPkg1q_n1R3NL-68" style="edgeStyle=orthogonalEdgeStyle;rounded=0;orthogonalLoop=1;jettySize=auto;html=1;exitX=0.5;exitY=0;exitDx=0;exitDy=0;entryX=1;entryY=0;entryDx=0;entryDy=0;" edge="1" parent="WIyWlLk6GJQsqaUBKTNV-1" source="3f8cZPRLPkg1q_n1R3NL-66" target="WIyWlLk6GJQsqaUBKTNV-3">
          <mxGeometry relative="1" as="geometry" />
        </mxCell>
        <mxCell id="3f8cZPRLPkg1q_n1R3NL-66" value="YES" style="rhombus;whiteSpace=wrap;html=1;rounded=1;glass=0;strokeWidth=1;shadow=0;" vertex="1" parent="WIyWlLk6GJQsqaUBKTNV-1">
          <mxGeometry x="1560" y="1120" width="80" height="80" as="geometry" />
        </mxCell>
        <mxCell id="3f8cZPRLPkg1q_n1R3NL-72" value="" style="edgeStyle=orthogonalEdgeStyle;rounded=0;orthogonalLoop=1;jettySize=auto;html=1;" edge="1" parent="WIyWlLk6GJQsqaUBKTNV-1" source="3f8cZPRLPkg1q_n1R3NL-69" target="3f8cZPRLPkg1q_n1R3NL-71">
          <mxGeometry relative="1" as="geometry" />
        </mxCell>
        <mxCell id="3f8cZPRLPkg1q_n1R3NL-76" value="" style="edgeStyle=orthogonalEdgeStyle;rounded=0;orthogonalLoop=1;jettySize=auto;html=1;" edge="1" parent="WIyWlLk6GJQsqaUBKTNV-1" source="3f8cZPRLPkg1q_n1R3NL-69" target="3f8cZPRLPkg1q_n1R3NL-75">
          <mxGeometry relative="1" as="geometry" />
        </mxCell>
        <mxCell id="3f8cZPRLPkg1q_n1R3NL-69" value="IS CURRENT PACK HIGHER THEN 21?" style="rhombus;whiteSpace=wrap;html=1;rounded=1;glass=0;strokeWidth=1;shadow=0;" vertex="1" parent="WIyWlLk6GJQsqaUBKTNV-1">
          <mxGeometry x="1050" y="810" width="110" height="100" as="geometry" />
        </mxCell>
        <mxCell id="3f8cZPRLPkg1q_n1R3NL-82" style="edgeStyle=orthogonalEdgeStyle;rounded=0;orthogonalLoop=1;jettySize=auto;html=1;exitX=0;exitY=0.5;exitDx=0;exitDy=0;entryX=0.5;entryY=1;entryDx=0;entryDy=0;" edge="1" parent="WIyWlLk6GJQsqaUBKTNV-1" source="3f8cZPRLPkg1q_n1R3NL-71" target="3f8cZPRLPkg1q_n1R3NL-24">
          <mxGeometry relative="1" as="geometry">
            <Array as="points">
              <mxPoint x="770" y="860" />
              <mxPoint x="770" y="660" />
            </Array>
          </mxGeometry>
        </mxCell>
        <mxCell id="3f8cZPRLPkg1q_n1R3NL-71" value="NO" style="rhombus;whiteSpace=wrap;html=1;rounded=1;glass=0;strokeWidth=1;shadow=0;" vertex="1" parent="WIyWlLk6GJQsqaUBKTNV-1">
          <mxGeometry x="860" y="810" width="110" height="100" as="geometry" />
        </mxCell>
        <mxCell id="3f8cZPRLPkg1q_n1R3NL-78" value="" style="edgeStyle=orthogonalEdgeStyle;rounded=0;orthogonalLoop=1;jettySize=auto;html=1;" edge="1" parent="WIyWlLk6GJQsqaUBKTNV-1" source="3f8cZPRLPkg1q_n1R3NL-75" target="3f8cZPRLPkg1q_n1R3NL-77">
          <mxGeometry relative="1" as="geometry" />
        </mxCell>
        <mxCell id="3f8cZPRLPkg1q_n1R3NL-75" value="YES" style="rhombus;whiteSpace=wrap;html=1;rounded=1;glass=0;strokeWidth=1;shadow=0;" vertex="1" parent="WIyWlLk6GJQsqaUBKTNV-1">
          <mxGeometry x="1255" y="820" width="80" height="80" as="geometry" />
        </mxCell>
        <mxCell id="3f8cZPRLPkg1q_n1R3NL-77" value="YOU LOSE" style="whiteSpace=wrap;html=1;rounded=1;glass=0;strokeWidth=1;shadow=0;" vertex="1" parent="WIyWlLk6GJQsqaUBKTNV-1">
          <mxGeometry x="1235" y="990" width="120" height="60" as="geometry" />
        </mxCell>
      </root>
    </mxGraphModel>
  </diagram>
</mxfile>
